<svg xmlns="http://www.w3.org/2000/svg" width="26" height="24.429" viewBox="0 0 26 24.429">
  <g id="delete-svgrepo-com_1_" data-name="delete-svgrepo-com (1)" transform="translate(-12 -92.8)" opacity="0.47">
    <path id="Path_25" data-name="Path 25" d="M12.531,202.661a.531.531,0,1,1,0-1.061l24.939.042a.531.531,0,0,1,0,1.061Zm4.1,1.082a.531.531,0,0,1,1.061,0v18.274l15.536-.17V203.935a.531.531,0,0,1,1.061,0v19.017l-17.68.191v-19.4Z" transform="translate(0 -105.913)"/>
    <path id="Path_26" data-name="Path 26" d="M355.314,113.345a.525.525,0,0,1-.531-.531V100.207a.531.531,0,1,1,1.061,0v12.607A.513.513,0,0,1,355.314,113.345Zm-8.362,0a.525.525,0,0,1-.531-.531V100.207a.531.531,0,1,1,1.061,0v12.607A.513.513,0,0,1,346.952,113.345Zm4.181,0a.525.525,0,0,1-.531-.531V100.207a.531.531,0,1,1,1.061,0v12.607A.513.513,0,0,1,351.133,113.345ZM354.593,96V94.71a.851.851,0,0,0-.849-.849H348.31a.843.843,0,0,0-.849.87v1.125H346.4V94.731a1.938,1.938,0,0,1,1.931-1.931h5.433a1.939,1.939,0,0,1,1.931,1.931v1.295h-1.1Z" transform="translate(-325.528)"/>
  </g>
</svg>
