<svg xmlns="http://www.w3.org/2000/svg" width="94.59" height="83.5" viewBox="0 0 94.59 83.5">
  <g id="success-achievement-award-medal-winner-svgrepo-com" transform="translate(-3.503 -6.886)">
    <path id="Path_27" data-name="Path 27" d="M67.115,90.385a11.833,11.833,0,0,1-6.98-2.31l-7.179-5.252a5.185,5.185,0,0,0-6.149,0l-7.179,5.252a11.866,11.866,0,0,1-18.8-10.852l.964-8.841a5.168,5.168,0,0,0-3.074-5.318l-8.127-3.59a11.849,11.849,0,0,1,0-21.7l8.127-3.59A5.168,5.168,0,0,0,21.8,28.863l-.964-8.841a11.866,11.866,0,0,1,18.8-10.852l7.179,5.252a5.185,5.185,0,0,0,6.149,0l7.179-5.252a11.633,11.633,0,0,1,9.007-2.094,12.049,12.049,0,0,1,7.894,5.2,3.324,3.324,0,1,1-5.551,3.656,5.368,5.368,0,0,0-3.523-2.31,4.986,4.986,0,0,0-3.939.947l-7.179,5.252a11.849,11.849,0,0,1-14.01,0l-7.163-5.252a5.2,5.2,0,0,0-8.309,4.77l.964,8.825a11.816,11.816,0,0,1-6.913,12.148L13.27,43.9a5.218,5.218,0,0,0,0,9.539l8.143,3.49a11.816,11.816,0,0,1,7,12.132l-.964,8.825a5.2,5.2,0,0,0,8.309,4.77l7.163-5.252a11.849,11.849,0,0,1,14.01,0l7.179,5.252a5.2,5.2,0,0,0,8.309-4.77l-.964-8.825a11.8,11.8,0,0,1,6.9-12.132l8.143-3.59a5.218,5.218,0,0,0,0-9.539l-4.421-1.828a3.324,3.324,0,1,1,2.676-6.082l4.421,1.944a11.849,11.849,0,0,1,0,21.7l-8.127,3.59a5.2,5.2,0,0,0-3.091,5.318l.964,8.841a11.633,11.633,0,0,1-5.85,11.55,11.916,11.916,0,0,1-5.95,1.546Z" transform="translate(0 0)" fill="#ef1923"/>
    <path id="Path_28" data-name="Path 28" d="M38.756,59.383A3.324,3.324,0,0,1,36.4,58.4L22.088,44.094a3.324,3.324,0,1,1,4.7-4.653L38.756,51.406,81.035,9.061a3.324,3.324,0,0,1,4.687,4.7L41.1,58.386A3.324,3.324,0,0,1,38.756,59.383Z" transform="translate(11.507 0.873)" fill="#ffb300"/>
  </g>
</svg>
