<svg xmlns="http://www.w3.org/2000/svg" width="32" height="32" viewBox="0 0 32 32">
  <path id="upload-cloud-svgrepo-com" d="M0,16V14.016A7.713,7.713,0,0,1,2.336,8.352,7.713,7.713,0,0,1,8,6.016a7.457,7.457,0,0,1,2.176.352A7.737,7.737,0,0,1,12.96,1.824,7.947,7.947,0,0,1,18.016,0a7.624,7.624,0,0,1,5.632,2.368A7.861,7.861,0,0,1,26.016,8a7.759,7.759,0,0,1-.32,2.048,2.6,2.6,0,0,1,.32-.032A6.009,6.009,0,0,1,32,16v2.016a5.693,5.693,0,0,1-1.76,4.224A5.931,5.931,0,0,1,26.016,24h-.384a6.11,6.11,0,0,0,.352-1.44,6.514,6.514,0,0,0-.32-2.56,5.433,5.433,0,0,0-1.408-2.208l-4-4A5.746,5.746,0,0,0,16,12a5.693,5.693,0,0,0-4.224,1.76l-4,4A5.872,5.872,0,0,0,6.368,20a6,6,0,0,0-.32,2.592A4.816,4.816,0,0,0,6.3,23.84a7.943,7.943,0,0,1-4.512-2.784A7.717,7.717,0,0,1,0,16Zm10.016,6.208a1.844,1.844,0,0,1,.576-1.6l4-4A1.933,1.933,0,0,1,16,16a1.865,1.865,0,0,1,1.408.608l4,4a1.875,1.875,0,0,1,.448,2.176,2,2,0,0,1-.736.9A1.764,1.764,0,0,1,20,24H18.016v6.016a1.865,1.865,0,0,1-.608,1.408,2.009,2.009,0,0,1-2.816,0,1.765,1.765,0,0,1-.576-1.408V24H12a1.917,1.917,0,0,1-1.088-.32,2.266,2.266,0,0,1-.768-.9A2.794,2.794,0,0,1,10.016,22.208Z" fill="#ef1923" opacity="0.25"/>
</svg>
